<?xml version="1.0" encoding="UTF-8"?>
<!DOCTYPE svg PUBLIC "-//W3C//DTD SVG 1.1//EN" "http://www.w3.org/Graphics/SVG/1.1/DTD/svg11.dtd">
<!-- Creator: CorelDRAW 2020 (64-Bit) -->
<svg xmlns="http://www.w3.org/2000/svg" xml:space="preserve" width="70.9101mm" height="77.671mm" version="1.1" shape-rendering="geometricPrecision" text-rendering="geometricPrecision" image-rendering="optimizeQuality" fill-rule="evenodd" clip-rule="evenodd"
viewBox="0 0 13473.6 14758.3"
 xmlns:xlink="http://www.w3.org/1999/xlink"
 xmlns:xodm="http://www.corel.com/coreldraw/odm/2003">
 <g id="Capa_x0020_1">
  <metadata id="CorelCorpID_0Corel-Layer"/>
  <g>
   <path fill="black" d="M4774.5 9698.1c-0.2,0.8 -0.3,1.6 -0.5,2.4 0.7,-0.2 1.4,-0.4 2.1,-0.5 -0.6,-0.6 -1.1,-1.2 -1.7,-1.8zm-4758.5 4649.5l-16 -12493.7c51.5,-60.4 47.9,-213.9 231.4,-332.5 147.9,-95.7 268.7,-80.9 476.1,-80.9 369.9,0 739.5,0 1109.4,0l7235.2 -0c512.1,0 248.7,50.3 707.8,-414.9l268.7 -299.6c204.5,-218.8 451.3,-556.1 739.2,-655 71.4,-24.5 152.6,-57.6 206.4,-60.8 156,-9.3 265.8,-21.9 412.4,12.2 247.1,57.6 338.1,146.6 476.6,268.4l188.1 185.1c156.9,168.3 381.7,420 527,592.6l533.3 587.8c358.5,421.3 298.8,665.3 362.2,776.1l0 222.2c-15,33.3 -13.9,166.8 -72.6,341.9 -107.9,322.2 -237.7,440.7 -479.6,708.9l-1116.1 1237.1c-66.4,110.3 -22.3,728.1 -22.3,897.5l0 8205.6c0.2,284.9 -26.2,460.6 -197.4,599.2 -182.4,147.7 -411.3,105.3 -700.6,105.3 -536,0 -1071.9,0 -1607.8,0 -690.6,0 -8679.3,22.1 -8873,-6.8 -301.7,-45 -351.5,-341.2 -388.1,-395.7zm10313.9 -11570.3l-393.5 -434.2c-92.8,74.6 -227.3,235.9 -309.8,332 -280.6,326.8 -625.3,683.9 -928.6,1035.1 -96.9,112.2 -202.7,227.4 -308,341.7l-2167.2 2411.9c-98.3,107 -211.4,230.8 -309,339.6l-468.4 522.5c-107.9,120.6 -431.4,470.3 -458.2,528.6l1062.5 1179.3 355.4 403.7c66.6,-59.2 105.5,-107.1 160.8,-168.8l2627.9 -2923.6c32.7,-33 48,-45.6 78.9,-84.4l2080.7 -2320.5c-14.1,-51.8 -12.5,-42.9 -72.3,-108.6l-267.3 -276 -683.7 -778.2zm-4091.8 4536.7c2.4,-2.5 5.6,-6 7.9,-8.5 2.3,-2.5 5.4,-6.2 7.7,-8.8l-15.6 17.3zm4386.1 -5732.3c1.7,4 4.7,5.6 5.8,11.7l162.2 197.6c64.4,69.3 118.8,125.9 179.9,194.1l436.5 488.5c21.1,22.3 21.6,22.6 45.9,51.2 16.1,18.9 31.9,37 45.3,52l354.8 391.3c42.6,51.8 130,158.8 188,191.2 64.7,-36.4 238,-252.8 301.3,-320.8 115.6,-124.1 249.9,-228.8 113.1,-402.1l-295.9 -337.2c-2.2,-2.5 -5.6,-5.9 -7.9,-8.3l-129.6 -145.7c-54.6,-58.8 -106.3,-117.1 -156,-168.6 -180,-186.5 -381.1,-450.2 -583.1,-651.1 -166.4,-165.4 -274.4,14.7 -365.4,114.4 -46.2,50.5 -258.8,269.5 -294.8,341.7zm-6058 7322.9c-35.4,46.4 -254.8,1148.3 -266.8,1285.5 121.4,-8 1103.7,-243.2 1163.1,-288.1 -130.5,-173.9 -287.9,-324.6 -447.9,-505l-448.4 -492.4zm5885.9 -2456.8l-60.5 68.7 -407.9 452.9 -1422.7 1581c-355.9,411.4 -793.9,851.6 -1115.8,1239.1 -32.8,39.5 -59.7,67.2 -99.7,110.4l-22.8 26.5c-2.2,2.6 -5,6.6 -7.1,9.3l-168 187.4c-693.2,789.9 -423.4,533.4 -1314.7,790.1 -571.2,164.5 -1098.2,264.3 -1683.4,415.6 -292,75.5 -665.2,221.4 -873,-111.1 -54,-86.4 -89,-202.8 -90.2,-301.1 -2.1,-180.2 225,-1229.5 268.4,-1427.4 64,-291.6 276.9,-1491.7 349.2,-1739.3 50.6,-173.1 144.2,-239.3 239.2,-363.4 5.5,-7.2 11.1,-15.8 20.8,-27.7l1216 -1348.5c16.5,-17.8 37.1,-38.4 55.3,-58.5l244 -276.1c38,-42.9 71.5,-76.3 107.8,-119.4 126.3,-150.2 285,-291.3 408.7,-452.1l91.5 -100.7c2.3,-2.6 5.4,-6.3 7.6,-8.9l1882.5 -2105.7 -8.1 -0 -6730.9 0.9 -0 10424.4c133,1.1 266,1.4 399,1.5 426.5,0.4 853.1,-1.2 1279.6,-2.9 645.1,-2.5 1295.2,-13.3 1939.9,-5 1829.4,23.4 3658.9,-14.1 5488.3,-1.1l-0.1 -2585.8 7.4 -2305.4 0.8 -1638.1 -1.2 -329.6z"/>
  </g>
 </g>
</svg>
