<?xml version="1.0" encoding="UTF-8"?>
<!DOCTYPE svg PUBLIC "-//W3C//DTD SVG 1.1//EN" "http://www.w3.org/Graphics/SVG/1.1/DTD/svg11.dtd">
<!-- Creator: CorelDRAW 2020 (64-Bit) -->
<svg xmlns="http://www.w3.org/2000/svg" xml:space="preserve" width="71.2611mm" height="84.6667mm" version="1.1" shape-rendering="geometricPrecision" text-rendering="geometricPrecision" image-rendering="optimizeQuality" fill-rule="evenodd" clip-rule="evenodd"
viewBox="0 0 14941.2 17751.9"
 xmlns:xlink="http://www.w3.org/1999/xlink"
 xmlns:xodm="http://www.corel.com/coreldraw/odm/2003">
 <g id="Capa_x0020_1">
  <metadata id="CorelCorpID_0Corel-Layer"/>
  <g>
   <path fill="black" d="M6552.2 10314.2c-0.1,0.7 -0.3,1.4 -0.4,2.2 0.7,-0.2 1.3,-0.3 2,-0.5 -0.5,-0.6 -1,-1.1 -1.6,-1.7zm-4454 4352l-15 -11694.2c48.2,-56.5 44.8,-200.2 216.5,-311.3 138.5,-89.5 251.5,-75.8 445.6,-75.8 346.3,0 692.2,0 1038.4,0l6772.3 -0c479.4,0 232.8,47.1 662.5,-388.3l251.5 -280.5c191.4,-204.8 422.4,-520.6 691.9,-613.1 66.8,-23 142.8,-53.9 193.2,-56.9 146,-8.7 248.8,-20.5 386,11.4 231.3,53.9 316.5,137.2 446.1,251.2l176 173.2c146.8,157.5 357.3,393.2 493.2,554.7l499.2 550.2c335.6,394.4 279.7,622.7 339,726.5l0 208c-14.1,31.2 -13,156.1 -67.9,320.1 -101,301.6 -222.5,412.5 -448.9,663.5l-1044.7 1157.9c-62.2,103.2 -20.9,681.5 -20.9,840.1l0 7680.5c0.2,266.6 -24.5,431.1 -184.8,560.9 -170.7,138.2 -385,98.6 -655.8,98.6 -501.7,0 -1003.3,0 -1505,0 -646.4,0 -8123.9,20.7 -8305.3,-6.4 -282.4,-42.1 -329,-319.3 -363.3,-370.4zm9653.9 -10830l-368.3 -406.4c-86.9,69.9 -212.8,220.8 -290,310.8 -262.7,305.9 -585.2,640.1 -869.2,968.9 -90.7,105 -189.7,212.8 -288.3,319.8l-2028.5 2257.6c-92,100.2 -197.8,216 -289.2,317.9l-438.4 489.1c-101,112.8 -403.8,440.2 -428.9,494.8l994.5 1103.8 332.7 377.9c62.4,-55.4 98.7,-100.2 150.5,-158l2459.7 -2736.6c30.6,-30.9 44.9,-42.7 73.9,-79l1947.5 -2172.1c-13.2,-48.5 -11.7,-40.2 -67.7,-101.7l-250.2 -258.4 -640 -728.4zm-3829.9 4246.4c2.2,-2.3 5.3,-5.6 7.4,-8 2.1,-2.4 5.1,-5.8 7.2,-8.2l-14.6 16.2zm4105.4 -5365.5c1.6,3.8 4.4,5.2 5.4,11l151.8 185c60.3,64.9 111.2,117.9 168.4,181.7l408.6 457.3c19.8,20.8 20.2,21.2 43,47.9 15.1,17.7 29.8,34.6 42.4,48.7l332.1 366.2c39.9,48.5 121.6,148.7 176,178.9 60.6,-34.1 222.8,-236.6 282,-300.2 108.2,-116.2 233.9,-214.2 105.8,-376.4l-277 -315.6c-2.1,-2.3 -5.3,-5.5 -7.4,-7.8l-121.3 -136.4c-51.1,-55 -99.5,-109.6 -146.1,-157.8 -168.5,-174.6 -356.7,-421.5 -545.8,-609.4 -155.7,-154.8 -256.8,13.8 -342,107.1 -43.2,47.3 -242.2,252.2 -276,319.8zm-5670.3 6854.3c-33.1,43.4 -238.5,1074.8 -249.7,1203.2 113.6,-7.5 1033,-227.6 1088.7,-269.7 -122.2,-162.8 -269.5,-303.8 -419.3,-472.7l-419.8 -460.9zm5509.3 -2299.6l-56.6 64.3 -381.8 423.9 -1331.6 1479.8c-333.1,385.1 -743.1,797.1 -1044.4,1159.8 -30.7,37 -55.9,62.9 -93.3,103.3l-21.4 24.8c-2,2.5 -4.7,6.2 -6.6,8.7l-157.3 175.4c-648.8,739.4 -396.3,499.3 -1230.6,739.5 -534.7,154 -1027.9,247.4 -1575.7,389 -273.4,70.7 -622.6,207.2 -817.1,-104 -50.6,-80.9 -83.3,-189.8 -84.4,-281.9 -2,-168.7 210.5,-1150.8 251.2,-1336.1 59.9,-272.9 259.2,-1396.2 326.9,-1628 47.3,-162.1 135,-224 223.9,-340.2 5.1,-6.7 10.4,-14.8 19.4,-25.9l1138.2 -1262.2c15.4,-16.7 34.7,-35.9 51.7,-54.7l228.4 -258.4c35.6,-40.1 66.9,-71.4 100.9,-111.7 118.2,-140.6 266.7,-272.7 382.6,-423.2l85.6 -94.3c2.2,-2.4 5,-5.8 7.1,-8.3l1762.1 -1970.9 -7.6 -0 -6300.2 0.9 -0 9757.3c124.5,1 249,1.3 373.5,1.4 399.3,0.4 798.5,-1.1 1197.8,-2.7 603.8,-2.3 1212.3,-12.4 1815.7,-4.7 1712.3,21.9 3424.7,-13.2 5137.1,-1l-0.1 -2420.3 6.9 -2157.9 0.7 -1533.3 -1.1 -308.5z"/>
  </g>
  <rect fill="none" x="-0" y="-0" width="14941.2" height="17751.9"/>
 </g>
</svg>
