<?xml version="1.0" encoding="UTF-8"?>
<!DOCTYPE svg PUBLIC "-//W3C//DTD SVG 1.1//EN" "http://www.w3.org/Graphics/SVG/1.1/DTD/svg11.dtd">
<!-- Creator: CorelDRAW 2020 (64-Bit) -->
<svg xmlns="http://www.w3.org/2000/svg" xml:space="preserve" width="11.9497mm" height="11.9497mm" version="1.1" shape-rendering="geometricPrecision" text-rendering="geometricPrecision" image-rendering="optimizeQuality" fill-rule="evenodd" clip-rule="evenodd"
viewBox="0 0 6897.5 6897.5"
 xmlns:xlink="http://www.w3.org/1999/xlink"
 xmlns:xodm="http://www.corel.com/coreldraw/odm/2003">
 <g id="Capa_x0020_1">
  <metadata id="CorelCorpID_0Corel-Layer"/>
  <path fill="red" stroke="red" stroke-width="0.2" stroke-miterlimit="22.9256" d="M3448.8 564.5c1592.9,0 2884.3,1291.4 2884.3,2884.3 0,1592.9 -1291.3,2884.3 -2884.3,2884.3 -1592.9,0 -2884.3,-1291.3 -2884.3,-2884.3 0,-1592.9 1291.4,-2884.3 2884.3,-2884.3zm0 -564.3c1904.6,0 3448.6,1544 3448.6,3448.7 0,1904.6 -1544,3448.6 -3448.6,3448.6 -1904.6,0 -3448.7,-1544 -3448.7,-3448.6 0,-1904.6 1544,-3448.7 3448.7,-3448.7z"/>
  <g id="_1436234932800">
   <path fill="red" stroke="red" stroke-width="0.2" stroke-miterlimit="22.9256" d="M3083.2 4749.3l731 0 130.7 -3466.6c6.7,-177.8 -223.4,-323.4 -496.2,-323.4l0 0c-272.7,0 -502.9,145.7 -496.2,323.4l130.7 3466.6z"/>
   <circle fill="red" stroke="red" stroke-width="0.2" stroke-miterlimit="22.9256" cx="3448.8" cy="5489.7" r="448.5"/>
  </g>
 </g>
</svg>
