<?xml version="1.0" encoding="UTF-8"?>
<!DOCTYPE svg PUBLIC "-//W3C//DTD SVG 1.1//EN" "http://www.w3.org/Graphics/SVG/1.1/DTD/svg11.dtd">
<!-- Creator: CorelDRAW 2020 (64-Bit) -->
<svg xmlns="http://www.w3.org/2000/svg" xml:space="preserve" width="129.117mm" height="88.1375mm" version="1.1" style="shape-rendering:geometricPrecision; text-rendering:geometricPrecision; image-rendering:optimizeQuality; fill-rule:evenodd; clip-rule:evenodd"
viewBox="0 0 43564.86 29738.1"
 xmlns:xlink="http://www.w3.org/1999/xlink"
 xmlns:xodm="http://www.corel.com/coreldraw/odm/2003">
 <defs>
  <style type="text/css">
   <![CDATA[
    .fil0 {fill:#152847}
   ]]>
  </style>
 </defs>
 <g id="Capa_x0020_1">
  <metadata id="CorelCorpID_0Corel-Layer"/>
  <path class="fil0" d="M7891.08 5504.51c-1458.74,1618.27 -2638.92,4138.89 -2683.49,8062.28 0,0 150.75,8666.94 6748.86,12567.83 3703.13,2189.26 9469.93,2500.82 13485.3,1148.87 2214.97,-745.77 4693.38,-2114.93 7026.71,-4573.57 2695.94,-2840.75 5874.44,-10142.35 5839.11,-13785.02 -13.77,-1418.45 -340.64,-3436.28 -1862.88,-4792.98 -1846.55,-1645.87 -6915.1,-2223 -9121.36,-2417.75 -2592.46,-228.83 -5846.4,-278.97 -9537.35,174.98 -3465.76,426.28 -7442.87,895.27 -9894.9,3615.37zm35673.78 -4737.82c-1721.01,-21.53 -8499.49,-135.7 -14878.79,-650.18 0,0 -9879.44,-773.67 -17794.88,1666.41 0,0 -4642.16,1487.82 -7201.29,6249.03 0,0 -1547.38,2321.08 -3689.9,2261.56l178.56 3213.79c0,0 2202.08,357.11 2856.71,2856.71 0,0 3273.31,12676.61 15057.21,13271.76 0,0 10057.97,1606.9 17735.36,-7915.44 0,0 4046.98,-5832.43 4880.2,-12438.57 0,0 297.59,-892.74 -297.56,-1666.41l-595.15 -1130.78c0,0 -654.63,-2142.53 1309.34,-2559.12 0,0 983.27,-317.09 2440.19,-326.31l0 -2832.45z"/>
  <polygon class="fil0" points="18896.21,3449.5 24014.45,3449.5 24014.45,11483.98 32048.93,11483.98 32048.93,16602.22 24014.45,16602.22 24014.45,24636.7 18896.21,24636.7 18896.21,16602.22 10861.73,16602.22 10861.73,11483.98 18896.21,11483.98 "/>
  <path class="fil0" d="M2455.1 10769.55c254.74,0 461.23,206.49 461.23,461.23 0,254.74 -206.49,461.23 -461.23,461.23 -254.74,0 -461.23,-206.49 -461.23,-461.23 0,-254.74 206.49,-461.23 461.23,-461.23z"/>
  <path class="fil0" d="M2455.1 12287.21c254.74,0 461.23,206.49 461.23,461.23 0,254.74 -206.49,461.23 -461.23,461.23 -254.74,0 -461.23,-206.49 -461.23,-461.23 0,-254.74 206.49,-461.23 461.23,-461.23z"/>
 </g>
</svg>
