<?xml version="1.0" encoding="UTF-8"?>
<!DOCTYPE svg PUBLIC "-//W3C//DTD SVG 1.1//EN" "http://www.w3.org/Graphics/SVG/1.1/DTD/svg11.dtd">
<!-- Creator: CorelDRAW 2020 (64-Bit) -->
<svg xmlns="http://www.w3.org/2000/svg" xml:space="preserve" width="129.117mm" height="88.1375mm" version="1.1" style="shape-rendering:geometricPrecision; text-rendering:geometricPrecision; image-rendering:optimizeQuality; fill-rule:evenodd; clip-rule:evenodd"
viewBox="0 0 9221.36 6294.66"
 xmlns:xlink="http://www.w3.org/1999/xlink"
 xmlns:xodm="http://www.corel.com/coreldraw/odm/2003">
 <defs>
  <style type="text/css">
   <![CDATA[
    .fil0 {fill:#152847}
   ]]>
  </style>
 </defs>
 <g id="Capa_x0020_1">
  <metadata id="CorelCorpID_0Corel-Layer"/>
  <path class="fil0" d="M7551.06 1165.14c308.77,342.54 558.58,876.08 568.01,1706.54 0,0 -31.91,1834.53 -1428.53,2660.23 -783.84,463.4 -2004.5,529.35 -2854.43,243.18 -468.84,-157.86 -993.45,-447.67 -1487.34,-968.09 -570.65,-601.3 -1243.44,-2146.83 -1235.96,-2917.87 2.91,-300.24 72.1,-727.36 394.32,-1014.53 390.86,-348.38 1463.72,-470.54 1930.72,-511.76 548.74,-48.44 1237.51,-59.05 2018.77,37.04 733.6,90.23 1575.43,189.5 2094.45,765.26zm-7551.06 -1002.85c364.28,-4.56 1799.08,-28.72 3149.39,-137.62 0,0 2091.18,-163.76 3766.64,352.73 0,0 982.61,314.93 1524.29,1322.73 0,0 327.53,491.3 781.04,478.7l-37.79 680.26c0,0 -466.11,75.59 -604.68,604.68 0,0 -692.86,2683.25 -3187.15,2809.23 0,0 -2128.97,340.13 -3754.04,-1675.46 0,0 -856.62,-1234.55 -1032.99,-2632.87 0,0 -62.99,-188.97 62.98,-352.73l125.98 -239.35c0,0 138.57,-453.51 -277.15,-541.69 0,0 -208.13,-67.12 -516.51,-69.07l0 -599.54zm8701.69 2438.54c-53.92,0 -97.63,43.71 -97.63,97.63 0,53.92 43.71,97.63 97.63,97.63 53.92,0 97.63,-43.71 97.63,-97.63 0,-53.92 -43.71,-97.63 -97.63,-97.63zm0 -321.24c-53.92,0 -97.63,43.71 -97.63,97.63 0,53.92 43.71,97.63 97.63,97.63 53.92,0 97.63,-43.71 97.63,-97.63 0,-53.92 -43.71,-97.63 -97.63,-97.63zm-1779.43 1234.6l0 -1083.38 -4484.69 0 0 1083.38 4484.69 0z"/>
 </g>
</svg>
