<?xml version="1.0" encoding="UTF-8"?>
<!DOCTYPE svg PUBLIC "-//W3C//DTD SVG 1.1//EN" "http://www.w3.org/Graphics/SVG/1.1/DTD/svg11.dtd">
<!-- Creator: CorelDRAW 2020 (64-Bit) -->
<svg xmlns="http://www.w3.org/2000/svg" xml:space="preserve" width="56.4454mm" height="56.4454mm" version="1.1" shape-rendering="geometricPrecision" text-rendering="geometricPrecision" image-rendering="optimizeQuality" fill-rule="evenodd" clip-rule="evenodd"
viewBox="0 0 39649.7 39649.7"
 xmlns:xlink="http://www.w3.org/1999/xlink"
 xmlns:xodm="http://www.corel.com/coreldraw/odm/2003">
 <g id="Capa_x0020_1">
  <metadata id="CorelCorpID_0Corel-Layer"/>
  <path fill="blue" stroke="black" stroke-width="0.7" stroke-miterlimit="22.9256" d="M19824.8 2478.4c9580.2,0 17346.5,7766.3 17346.5,17346.5 0,9580.2 -7766.3,17346.5 -17346.5,17346.5 -9580.2,0 -17346.5,-7766.3 -17346.5,-17346.5 0,-9580.2 7766.3,-17346.5 17346.5,-17346.5zm0 -2478c10948.8,0 19824.5,8875.7 19824.5,19824.5 0,10948.8 -8875.7,19824.5 -19824.5,19824.5 -10948.8,0 -19824.5,-8875.7 -19824.5,-19824.5 0,-10948.8 8875.7,-19824.5 19824.5,-19824.5z"/>
  <polygon fill="blue" stroke="black" stroke-width="0.7" stroke-miterlimit="22.9256" points="16274.3,8920.9 23375.3,8920.9 23375.3,16769.6 31224,16769.6 31224,23870.6 23375.3,23870.6 23375.3,31719.3 16274.3,31719.3 16274.3,23870.6 8425.7,23870.6 8425.7,16769.6 16274.3,16769.6 "/>
 </g>
</svg>
