<?xml version="1.0" encoding="UTF-8"?>
<!DOCTYPE svg PUBLIC "-//W3C//DTD SVG 1.1//EN" "http://www.w3.org/Graphics/SVG/1.1/DTD/svg11.dtd">
<!-- Creator: CorelDRAW 2020 (64-Bit) -->
<svg xmlns="http://www.w3.org/2000/svg" xml:space="preserve" width="70.91mm" height="77.6715mm" version="1.1" shape-rendering="geometricPrecision" text-rendering="geometricPrecision" image-rendering="optimizeQuality" fill-rule="evenodd" clip-rule="evenodd"
viewBox="0 0 64021.1 70125.7"
 xmlns:xlink="http://www.w3.org/1999/xlink"
 xmlns:xodm="http://www.corel.com/coreldraw/odm/2003">
 <g id="Capa_x0020_1">
  <metadata id="CorelCorpID_0Corel-Layer"/>
  <path fill="black" d="M29483.4 36391c0,-3748.3 3371.5,-2983.6 4341,-2319.2 484.3,332 713.3,872.9 713.3,1645.4l0 1825.5 0 20354 0 1783.6c0,3243.5 -5054.3,3564 -5054.3,-336.9 0,-804 150.9,-961.2 150.8,-1516.4l-27.4 -20135c52.2,-620.3 -123.4,-658.4 -123.4,-1300.9zm34537.7 -20909.3l0 3346.3c-79,1075.9 -232.4,2016.5 -438.7,2635.2 -1435.7,4303.9 -2615.6,2577.8 -2932.1,5660.2l-1588.1 15428 -2102.5 12257.4c-138.4,1646.7 -263.1,3619.6 -617,5111.2 -327.9,1381.8 -1090.5,2727 -2048.7,3679.6 -1224.4,1217.4 -1344.3,1388.5 -2702.2,2183.6 -114.3,66.9 -301.1,196.3 -408.4,265.5 -3991,2580.2 -11292.1,4041.7 -18815,4076.8l-524.1 0c-7994.5,-33.1 -16158.4,-1681.5 -20798.9,-5317.2 -593.5,-465.1 -1015.7,-835 -1467.8,-1396.3 -873.2,-1084.6 -1633.9,-2100.1 -1927.6,-3800.5 -927,-5365.4 -1295.7,-6318.3 -2166.7,-12193.3 -263.3,-1775.4 -274.6,-3422.7 -526.5,-5201.9l-911.7 -9196.8c-72.9,-1050.8 -115.7,-377.6 -283.9,-1063.9 -186.1,-759.6 10.7,-1917 -99.8,-2764.3 -100.3,-769 -254.2,-1639.1 -284.7,-2579.5 -39.9,-1230.1 -400.9,-1049.2 -1019.7,-1844.4 -2179.5,-2800.8 -2347.1,-4200.5 -2357.3,-7314.3l0 -1284.6c2.1,-5651.7 3342.3,-8050.7 7359.5,-10325.4 452,-256 831.5,-423 1256,-597.4l2819.5 -1055.3c1142.4,-415.8 4824.3,-1494.8 6255.1,-1494.8 0,1211.3 -378.1,1573.1 -607,2594.2 -241.2,1075.2 -235.5,1541.7 -235.5,2797 -1292.7,620.3 -7105.3,1698.8 -9649,4166.2 -1176.9,1141.4 -1807.3,1728.9 -1807.3,3246.8 0,3448 7603.3,6065.1 10015.8,6663.5 1223.4,303.3 2186.3,566.4 3438.6,773.1l3660.8 551.2c8658.5,1197.4 17809.3,712.4 26090.7,-1341.3 2066.4,-512.6 4218.5,-1190.4 6043.5,-2211.9 1010.4,-565.4 1521.8,-957.6 2404,-1639.3 543.2,-419.6 1585.1,-1622.6 1585.1,-2458.4 0,-1962.6 -77.8,-1967.8 -1892.5,-3667.2 -2619.2,-2452.9 -8560.7,-3601.4 -9563.9,-4082.8 0,-3748.7 -525.4,-3307.3 -1010.8,-5391.2 1928.5,0 3111.7,596.5 4903.1,993.4 665.9,147.6 757.5,242.6 1393,460.5 589,201.7 1027.2,373.9 1495.1,526.5 688.2,224.1 765.4,296.9 1309.7,543.5l3148.3 1569c2337.8,1553.1 2904.8,2245.7 4449.1,4311.7 667.3,892.8 1027.5,2582.7 1160.2,4381.3zm-52564.6 16697.3c0,-2097.3 3565.7,-1635.2 4668.2,554.6 321.3,638.1 680.7,2393.9 899.3,4627l2714.2 19497.5 142 1474.3c0,1811.6 -4145.2,2233.5 -4958.1,-1275.5l-2884.6 -19419.1c-109.6,-1051.1 -232.8,-2055.6 -360.9,-2983.3 -130.9,-948 -220.2,-1480.5 -220.2,-2475.4zm35211.6 27501.2c-842.6,0 -1277.7,104.7 -1820,-370.3 -882.4,-773 -479.9,-1642.2 -376.1,-3173.6l2918.4 -20695.5c104,-880.6 252,-1732.3 496.8,-2379.6 382.1,-1009.8 1697.2,-2230 3161.2,-2230 2128.7,0 1689.6,1878.8 1485.9,3676.1l-3192.9 22117.9c-253.9,1621.5 -1455.3,3054.9 -2673.3,3054.9zm-26450.9 -52941.1l0 5896.6c0,2125.7 4298.4,2392.9 5492.5,943.7 1474.3,-1789.1 -1391.7,-7682.7 2257.5,-7682.7 10641.2,0 10109.2,-938.5 10108.6,4549 -0.3,2317.6 -368,3030.8 1172.6,3713.1 1206,534.1 2857,448.4 3938.6,-286.7 1160.8,-788.9 785.5,-3203.9 785.5,-5279.6 0,-3601.4 -1544.1,-6452.7 -4318.7,-7811.6 -867.5,-424.8 -2043.2,-780.8 -3262.7,-780.8l-8196.3 0c-1425.9,89.4 -2679.5,271.3 -3484.5,618.2 -478.7,206 -639.5,349 -1074.5,610.1 -1642.1,985.8 -3418.6,3627.6 -3418.6,5510.7z"/>
 </g>
</svg>
