<?xml version="1.0" encoding="UTF-8"?>
<!DOCTYPE svg PUBLIC "-//W3C//DTD SVG 1.1//EN" "http://www.w3.org/Graphics/SVG/1.1/DTD/svg11.dtd">
<!-- Creator: CorelDRAW 2020 (64-Bit) -->
<svg xmlns="http://www.w3.org/2000/svg" xml:space="preserve" width="113.497mm" height="114.862mm" version="1.1" shape-rendering="geometricPrecision" text-rendering="geometricPrecision" image-rendering="optimizeQuality" fill-rule="evenodd" clip-rule="evenodd"
viewBox="0 0 63202.4 63962"
 xmlns:xlink="http://www.w3.org/1999/xlink"
 xmlns:xodm="http://www.corel.com/coreldraw/odm/2003">
 <g id="Capa_x0020_1">
  <metadata id="CorelCorpID_0Corel-Layer"/>
  <rect fill="red" x="0" y="-0" width="63202.4" height="63962"/>
  <g id="_1374411313616">
   <path fill="black" d="M30042.5 30266.5c0,-2311.9 2079.5,-1840.2 2677.4,-1430.5 298.7,204.8 440,538.4 440,1014.8l0 19847.5c0,2000.5 -3117.4,2198.2 -3117.4,-207.8 0,-495.8 93.1,-592.8 93,-935.2l-93 -1662.6c0,-438.9 75.5,-577.8 83.3,-841l-83.3 -1652.9c0,-438.8 75.5,-577.8 83.3,-841l-83.3 -1652.9c0,-438.9 75.5,-577.8 83.3,-841l-83.3 -1549c0,-503.3 93,-709.2 93,-1039.2l-93 -1662.6c0,-438.9 75.5,-577.9 83.3,-841.1l-83.3 -1652.9c0,-438.9 75.5,-577.8 83.3,-841 21,-711.9 -153.9,-667.7 -7.2,-2409.2 32.2,-382.6 -76.1,-406.1 -76.1,-802.4zm21302.3 -12896.5l0 2064c-48.7,663.6 -143.3,1243.8 -270.6,1625.4 -885.5,2654.6 -1613.3,1590 -1808.5,3491.1l-979.5 9515.7c-256.2,1819.1 -433.3,4583.3 -653.4,6308.9 -74.1,581.4 -90,1070.1 -142.3,1624.2 -42,444.5 -157.5,1032.6 -190.6,1472 -85,1128.7 -221.1,2159.9 -310.5,3222.6 -85.4,1015.7 -162.3,2232.5 -380.6,3152.5 -202.3,852.3 -672.6,1681.9 -1263.6,2269.5 -755.2,750.9 -829.1,856.4 -1666.7,1346.8 -70.5,41.3 -185.7,121.1 -251.9,163.8 -2461.6,1591.4 -6964.8,2492.8 -11604.8,2514.5l-323.3 0c-4930.8,-20.4 -9966.2,-1037.1 -12828.4,-3279.6 -366.1,-286.9 -626.5,-515 -905.3,-861.2 -538.6,-668.9 -1007.8,-1295.4 -1188.9,-2344.1 -571.7,-3309.3 -799.2,-8964.5 -1336.4,-12588 -162.4,-1095 -169.4,-2111.1 -324.7,-3208.4l-562.3 -5672.5c-44.9,-648.1 -71.4,-232.8 -175.1,-656.2 -114.8,-468.5 6.6,-1182.4 -61.5,-1705 -61.9,-474.3 -156.8,-1011 -175.6,-1591 -24.6,-758.7 -247.2,-647.1 -628.9,-1137.6 -1344.3,-1727.5 -1447.7,-2590.8 -1453.9,-4511.3l0 -792.3c1.3,-3486 2061.4,-4965.5 4539.2,-6368.6 278.8,-157.9 512.9,-260.9 774.7,-368.4l1739 -651c704.6,-256.4 2975.5,-922 3858.1,-922 0,747.1 -233.2,970.3 -374.4,1600 -148.7,663.2 -145.2,950.9 -145.2,1725.2 -797.3,382.6 -4382.4,1047.7 -5951.4,2569.5 -725.9,704 -1114.7,1066.4 -1114.7,2002.6 0,2126.7 4689.6,3740.8 6177.5,4109.9 754.5,187.1 1348.5,349.4 2120.9,477l2257.9 339.9c5340.4,738.6 10984.5,439.4 16092.3,-827.3 1274.5,-316.1 2601.9,-734.2 3727.5,-1364.3 623.2,-348.8 938.6,-590.6 1482.8,-1011.1 335,-258.8 977.7,-1000.8 977.7,-1516.3 0,-1210.5 -48,-1213.7 -1167.2,-2261.9 -1615.5,-1512.9 -5280.1,-2221.3 -5898.8,-2518.1 0,-2312.2 -324,-2040 -623.5,-3325.2 1189.5,0 1919.2,368 3024.2,612.8 410.7,91 467.2,149.6 859.2,283.9 363.3,124.5 633.5,230.7 922.2,324.8 424.4,138.3 472.1,183.2 807.8,335.3l1941.8 967.7c1441.9,958 1791.6,1385.1 2744.1,2659.4 411.6,550.7 633.8,1593 715.6,2702.3zm-32421 10298.6c0,-1293.5 2199.3,-1008.6 2879.3,342 635,1261.2 1142,9640.5 1440,11757.1l876.4 9099.3c0,1117.3 -2556.7,1377.6 -3058.1,-786.7 -234.7,-1013 -872.7,-8283.3 -1089.6,-10133.1 -318,-2712 -560.4,-6204.7 -912.1,-8751.8 -80.7,-584.7 -135.8,-913.1 -135.8,-1526.8zm21717.9 22029.7c-519.7,0 -788.1,64.6 -1122.5,-228.4 -544.3,-476.7 -296,-1012.9 -232,-1957.4 36.7,-541.6 63.8,-961.4 124.1,-1538.5l604.8 -5830.8c113.3,-2108.8 731.5,-6628.6 940.3,-9042.5 80,-925.4 151.5,-2132.4 437.3,-2887.9 235.7,-622.9 1046.8,-1375.4 1949.8,-1375.4 1313,0 1042.1,1158.8 916.5,2267.4l-1002.9 9388.4c-223.2,2137.8 -685.9,7530.1 -966.4,9321 -156.6,1000.1 -897.6,1884.1 -1648.9,1884.1z"/>
   <path fill="black" d="M24327.2 11977.7l0 3637c0,1311 2651.2,1475.9 3387.7,582 909.3,-1103.4 -858.4,-4738.6 1392.4,-4738.6 6563.3,0 6235.2,-578.9 6234.8,2805.7 -0.2,1429.5 -227,1869.4 723.3,2290.2 743.9,329.4 1762.1,276.6 2429.3,-176.9 716,-486.6 484.5,-1976.1 484.5,-3256.4 0,-2221.3 -952.4,-3979.9 -2663.7,-4818.1 -535,-262 -1260.2,-481.5 -2012.4,-481.5l-5055.4 0c-879.5,55.2 -1652.7,167.3 -2149.2,381.2 -295.2,127.1 -394.4,215.3 -662.7,376.4 -1012.8,608 -2108.5,2237.4 -2108.5,3398.9z"/>
  </g>
 </g>
</svg>
