<?xml version="1.0" encoding="UTF-8"?>
<!DOCTYPE svg PUBLIC "-//W3C//DTD SVG 1.1//EN" "http://www.w3.org/Graphics/SVG/1.1/DTD/svg11.dtd">
<!-- Creator: CorelDRAW 2020 (64-Bit) -->
<svg xmlns="http://www.w3.org/2000/svg" xml:space="preserve" width="71.2611mm" height="84.6667mm" version="1.1" shape-rendering="geometricPrecision" text-rendering="geometricPrecision" image-rendering="optimizeQuality" fill-rule="evenodd" clip-rule="evenodd"
viewBox="0 0 10141.2 12049"
 xmlns:xlink="http://www.w3.org/1999/xlink"
 xmlns:xodm="http://www.corel.com/coreldraw/odm/2003">
 <g id="Capa_x0020_1">
  <metadata id="CorelCorpID_0Corel-Layer"/>
  <path fill="black" d="M3692.6 2607.2l0 711.4c0,256.5 502.3,288.7 641.8,113.9 172.3,-215.9 -162.6,-926.9 263.8,-926.9 1243.4,0 1181.3,-113.2 1181.2,548.9 -0,279.6 -43,365.7 137,448 140.9,64.4 333.8,54.1 460.2,-34.6 135.6,-95.2 91.8,-386.6 91.8,-637 0,-434.5 -180.4,-778.5 -504.6,-942.5 -101.4,-51.2 -238.8,-94.2 -381.2,-94.2l-957.7 0c-166.6,10.8 -313.1,32.7 -407.2,74.6 -55.9,24.9 -74.7,42.1 -125.6,73.6 -191.9,118.9 -399.5,437.7 -399.5,664.9zm3090.8 6387.5c-98.5,0 -149.3,12.6 -212.7,-44.7 -103.1,-93.3 -56.1,-198.1 -43.9,-382.9l341 -2496.9c12.2,-106.2 29.4,-209 58,-287.1 44.7,-121.8 198.3,-269.1 369.4,-269.1 248.7,0 197.4,226.7 173.6,443.5l-373.1 2668.6c-29.7,195.6 -170.1,368.6 -312.4,368.6zm-4114.4 -3318.1c0,-253 416.6,-197.3 545.5,66.9 37.6,77 79.5,288.8 105.1,558.3l317.2 2352.4 16.6 177.9c0,218.6 -484.4,269.5 -579.3,-153.9l-337.1 -2343c-12.8,-126.8 -27.2,-248 -42.2,-359.9 -15.3,-114.4 -25.7,-178.6 -25.7,-298.7zm6142.1 -2014.6l0 403.7c-9.2,129.8 -27.2,243.3 -51.3,318 -167.8,519.3 -305.6,311 -342.6,682.9l-185.6 1861.4 -245.7 1478.9c-16.2,198.7 -30.7,436.7 -72.1,616.7 -38.3,166.7 -127.4,329 -239.4,444 -143.1,146.9 -157.1,167.5 -315.7,263.5 -13.4,8.1 -35.2,23.7 -47.7,32 -466.4,311.3 -1319.5,487.6 -2198.5,491.9l-61.2 0c-934.1,-4 -1888.1,-202.9 -2430.3,-641.5 -69.3,-56.1 -118.7,-100.7 -171.5,-168.5 -102,-130.9 -190.9,-253.4 -225.2,-458.5 -108.3,-647.3 -151.4,-762.3 -253.2,-1471.1 -30.8,-214.2 -32.1,-413 -61.5,-627.6l-106.5 -1109.6c-8.5,-126.8 -13.5,-45.6 -33.2,-128.4 -21.7,-91.6 1.2,-231.3 -11.7,-333.5 -11.7,-92.8 -29.7,-197.8 -33.3,-311.2 -4.7,-148.4 -46.8,-126.6 -119.1,-222.5 -254.7,-337.9 -274.3,-506.8 -275.4,-882.5l0 -155c0.2,-681.9 390.5,-971.3 859.9,-1245.8 52.8,-30.9 97.2,-51 146.8,-72.1l329.4 -127.3c133.5,-50.2 563.7,-180.4 730.9,-180.4 0,146.1 -44.2,189.8 -70.9,313 -28.2,129.7 -27.5,186 -27.5,337.5 -151,74.9 -830.3,205 -1127.5,502.7 -137.5,137.7 -211.2,208.6 -211.2,391.7 0,416 888.4,731.8 1170.3,804 143,36.6 255.5,68.4 401.8,93.3l427.8 66.5c1011.7,144.5 2081,86 3048.7,-161.8 241.5,-61.8 492.9,-143.6 706.2,-266.9 118.1,-68.2 177.8,-115.5 280.9,-197.8 63.5,-50.6 185.2,-195.8 185.2,-296.6 0,-236.8 -9.1,-237.4 -221.1,-442.4 -306.1,-295.9 -1000.3,-434.5 -1117.5,-492.6 0,-452.3 -61.4,-399 -118.1,-650.4 225.3,0 363.6,72 572.9,119.9 77.8,17.8 88.5,29.3 162.8,55.6 68.8,24.3 120,45.1 174.7,63.5 80.4,27 89.4,35.8 153,65.6l367.9 189.3c273.2,187.4 339.4,270.9 519.9,520.2 78,107.7 120.1,311.6 135.6,528.6zm-4035.7 2522.7c0,-452.2 394,-360 507.2,-279.8 56.6,40.1 83.4,105.3 83.4,198.5l0 220.2 0 2455.8 0 215.2c0,391.3 -590.6,430 -590.6,-40.6 0,-97 17.6,-116 17.6,-183l-3.2 -2429.3c6.1,-74.8 -14.4,-79.4 -14.4,-157z"/>
  <rect fill="none" x="-0" y="-0" width="10141.2" height="12049"/>
 </g>
</svg>
